<?xml version="1.0" encoding="utf-8"?>
<!-- Generator: Adobe Illustrator 28.0.0, SVG Export Plug-In . SVG Version: 6.00 Build 0)  -->
<svg version="1.1" id="图层_1" xmlns="http://www.w3.org/2000/svg" xmlns:xlink="http://www.w3.org/1999/xlink" x="0px" y="0px"
	 viewBox="0 0 272 60" style="enable-background:new 0 0 272 60;" xml:space="preserve">
<style type="text/css">
	.st0{fill:url(#SVGID_1_);}
	.st1{fill:url(#SVGID_00000022525173143640657740000011308273785496449678_);}
	.st2{fill:url(#SVGID_00000101787081815915060300000013309188663126326696_);}
	.st3{fill:url(#SVGID_00000165913174821615106620000016489812102217835658_);}
</style>
<g>
	<linearGradient id="SVGID_1_" gradientUnits="userSpaceOnUse" x1="30.618" y1="-2.3986" x2="38.079" y2="80.0871">
		<stop  offset="0" style="stop-color:#FFFFFF"/>
		<stop  offset="1" style="stop-color:#FFD9CC"/>
	</linearGradient>
	<path class="st0" d="M26.8,48.68h36.14l-0.89,8.59H22.44L10.58,51l-0.41,2.66c-0.18,1-0.66,1.84-1.43,2.52
		c-0.77,0.68-1.68,1.02-2.73,1.02H0.69l3.95-24.89h8.86l-1.36,8.86l2.05,1.09l1.3-12.55H3.55l0.89-8.18h8.39l0.61-6.14H6.28
		l0.89-8.18h7.16l0.48-4.5H26.4l-1.98,18.82h7.91l-0.48,4.36c-0.09,1.09-0.55,2-1.36,2.73c-0.82,0.73-1.77,1.09-2.86,1.09h-0.95
		l-0.48,4.84h4.77l-0.48,4.36c-0.09,1.09-0.55,2-1.36,2.73c-0.82,0.73-1.77,1.09-2.86,1.09H25.3l-0.48,4.91L26.8,48.68z M30.9,14.32
		c-0.82,0.73-1.77,1.09-2.86,1.09h-1.3l0.89-8.18h5.11l-0.48,4.36C32.17,12.68,31.71,13.59,30.9,14.32z M48.08,25.02h15.95
		l-1.09,10.09l-6.61,3.48h6.27l-0.48,4.36c-0.09,1.09-0.55,2-1.36,2.73c-0.82,0.73-1.77,1.09-2.86,1.09H32.12l2.32-21.75H45.9
		l-0.89,8.18l-0.55,5.39h6.68l0.55-5.39h-4.5L48.08,25.02z M65.46,12l-6.61,2.66h6.34l-0.48,4.36c-0.09,1.09-0.55,2-1.36,2.73
		c-0.82,0.73-1.77,1.09-2.86,1.09H48.83l0.89-8.18h4.02l0.34-3.41h-5.32l-3.14,9.27c-0.32,0.82-0.81,1.48-1.47,1.98
		c-0.66,0.5-1.42,0.75-2.28,0.75h-8.05l4.09-12h-3.27l0.89-8.32h30.89L65.46,12z"/>
	
		<linearGradient id="SVGID_00000072962219073023480830000007224327908619044737_" gradientUnits="userSpaceOnUse" x1="98.737" y1="-8.5601" x2="106.198" y2="73.9256">
		<stop  offset="0" style="stop-color:#FFFFFF"/>
		<stop  offset="1" style="stop-color:#FFD9CC"/>
	</linearGradient>
	<path style="fill:url(#SVGID_00000072962219073023480830000007224327908619044737_);" d="M93.28,46.57l-0.55,4.91
		c-0.09,0.96-0.48,1.78-1.16,2.49c-0.68,0.7-1.52,1.1-2.52,1.19l-19.09,2.11l0.89-8.25L93.28,46.57z M91.1,43.09
		c-0.82,0.73-1.77,1.09-2.86,1.09H71.19L72.08,36l6.27-7.02h-5.59l0.82-8.18l8.05-18.07h10.36L83.94,20.8h1.43l4.84-10.84h10.02
		l-6.82,15.96L84.62,36h8.32l-0.48,4.36C92.37,41.46,91.92,42.36,91.1,43.09z M134.19,31.3l-6.95,13.77l5.73,12.21h-9.41
		c-1.23,0-2.11-0.5-2.66-1.5l-1.84-3.41l-3.55,4.91h-8.18l1.02-9.55h2.73l2.93-4.02l-4.5-9.55l-4.02,19.77
		c-0.18,1-0.65,1.81-1.4,2.42c-0.75,0.61-1.63,0.92-2.62,0.92h-8.25l9.07-45.07h-1.16l0.89-8.18h32.59l-0.89,8.18l-2.59,11.32h3.89
		L134.19,31.3z M110.74,28.02h6.68l3.68,7.43l1.98-4.16h-3.82l0.82-7.5l2.66-11.59h-8.86L110.74,28.02z"/>
	
		<linearGradient id="SVGID_00000084519460205363876800000005630800243476346780_" gradientUnits="userSpaceOnUse" x1="164.5845" y1="-14.5162" x2="172.0455" y2="67.9696">
		<stop  offset="0" style="stop-color:#FFFFFF"/>
		<stop  offset="1" style="stop-color:#FFD9CC"/>
	</linearGradient>
	<path style="fill:url(#SVGID_00000084519460205363876800000005630800243476346780_);" d="M140.67,43.57h11.59l-2.59,10.57
		c-0.23,0.91-0.71,1.66-1.43,2.25c-0.73,0.59-1.57,0.89-2.52,0.89h-8.39L140.67,43.57z M155.09,40.84
		c-0.79,0.73-1.74,1.09-2.83,1.09h-13.23l0.82-7.91h5.45l0.55-5.39l-5.93,0.41l0.89-8.25l5.93-0.41l0.54-5.46h-5.73l0.89-8.18h5.73
		l0.41-4.02h11.59l-0.41,4.02h4.77l-0.48,4.36c-0.09,1.09-0.55,2-1.36,2.73c-0.82,0.73-1.77,1.09-2.86,1.09h-0.96l-0.48,4.71
		l4.77-0.34l-0.82,8.18l-4.84,0.34l-0.34,3.21l-5.39,3h5.11l-0.41,4.09C156.35,39.21,155.89,40.11,155.09,40.84z M166.38,43.57
		l0.27,13.71h-8.18c-0.96,0-1.73-0.3-2.32-0.89c-0.59-0.59-0.91-1.36-0.96-2.32l-0.34-10.5H166.38z M202.24,33.75l-0.82,8.18h-16.3
		l2.8-26.93h-4.09l-4.7,12.55l4.84,3.2l-1.02,9.48l-6.82-4.57l-1.3,3.61c-0.32,0.77-0.81,1.41-1.47,1.91
		c-0.66,0.5-1.4,0.75-2.22,0.75h-9.07l4.64-12.55l-2.32-1.57l1.02-9.34l4.3,2.86l2.32-6.34h-6.61l0.89-8.18h8.8l1.5-4.09h11.73
		l-1.5,4.09h13.43l-2.86,26.93H202.24z M182.4,43.57l0.75,13.71h-8.39c-0.91,0-1.67-0.28-2.28-0.85c-0.61-0.57-0.94-1.33-0.99-2.28
		l-0.48-10.57H182.4z M198.49,43.57l0.61,13.71h-8.46c-0.95,0-1.73-0.27-2.32-0.82c-0.59-0.54-0.91-1.29-0.96-2.25l-0.54-10.64
		H198.49z"/>
	
		<linearGradient id="SVGID_00000158727179128370474500000014201138334094807683_" gradientUnits="userSpaceOnUse" x1="233.5575" y1="-20.755" x2="241.0186" y2="61.7308">
		<stop  offset="0" style="stop-color:#FFFFFF"/>
		<stop  offset="1" style="stop-color:#FFD9CC"/>
	</linearGradient>
	<path style="fill:url(#SVGID_00000158727179128370474500000014201138334094807683_);" d="M213.42,21.41l-5.11,35.8h-3.14l5.11-35.8
		H213.42z M225.63,19.09l-4.02,38.11h-11.59l4.02-38.11h-4.77l0.82-8.18h4.77l0.89-8.11h11.59l-0.89,8.11h3.96l-0.41,4.36
		c-0.14,1.09-0.6,2-1.4,2.73c-0.8,0.73-1.74,1.09-2.83,1.09H225.63z M228.83,21.41l-1.98,27.68h-3.14l1.98-27.68H228.83z
		 M255.22,28.57h15.68l-0.41,4.23c-0.14,1.09-0.6,2-1.4,2.73c-0.8,0.73-1.74,1.09-2.83,1.09h-20.11l-0.75,2.18h21.48l-0.75,7.7
		l-5.66,3.14h5.32l-0.41,3.82c-0.09,1.09-0.54,2-1.36,2.73c-0.82,0.73-1.77,1.09-2.86,1.09h-13.84l0.82-7.64h6.95l0.34-3.07H242.6
		l-2.93,8.05c-0.27,0.82-0.75,1.47-1.43,1.94s-1.43,0.72-2.25,0.72h-8.25l7.5-20.66h-6.68l0.82-8.05h15.14l-0.14-1.98h10.64
		L255.22,28.57z M265.86,17.39h5.45l-1.02,9.75h-10.71l0.27-2.39H241.1l-0.27,2.39h-10.71l1.02-9.75h5.52l-0.34-3.61h10.09
		l0.34,3.61h9l1.16-3.61h10.02L265.86,17.39z M269.5,11.66c-0.8,0.73-1.74,1.09-2.83,1.09h-33.41l0.82-7.91h12.14l-0.21-2.11h10.64
		l0.21,2.11h14.45l-0.48,4.09C270.74,10.02,270.3,10.93,269.5,11.66z"/>
</g>
</svg>
