<svg t="1669622136383" class="icon" viewBox="0 0 1024 1024" version="1.1" xmlns="http://www.w3.org/2000/svg" p-id="106737" width="200" height="200"><path d="M700.074667 759.637333H166.4V150.357333h688.810667V481.28h-85.333334V235.690667H251.733333v438.613333h448.341334v85.333333z" fill="#FFAE20" p-id="106738"></path><path d="M469.845333 532.992L456.874667 494.933333h-77.653334l-13.141333 38.741334h-44.544l79.530667-219.306667h34.133333l79.872 218.624z m-51.2-153.6l-27.648 79.530667h54.272zM699.733333 447.317333a145.408 145.408 0 0 1-1.877333 23.381334 89.088 89.088 0 0 1-6.485333 21.845333 67.242667 67.242667 0 0 1-39.424 35.498667 98.986667 98.986667 0 0 1-32.085334 5.12h-78.506666V314.368h78.848a98.986667 98.986667 0 0 1 32.085333 5.12 65.536 65.536 0 0 1 25.6 15.872 66.218667 66.218667 0 0 1 13.824 19.285333 85.333333 85.333333 0 0 1 6.485333 20.821334 139.946667 139.946667 0 0 1 1.536 23.381333v48.469333z m-42.666666-45.909333q0-9.045333-1.194667-15.872a48.981333 48.981333 0 0 0-2.730667-11.434667 30.72 30.72 0 0 0-4.949333-8.362666 35.328 35.328 0 0 0-13.141333-10.069334 46.250667 46.250667 0 0 0-18.773334-3.413333h-32.256V494.933333h32.256a46.250667 46.250667 0 0 0 18.773334-3.413333 35.157333 35.157333 0 0 0 13.141333-10.069333 41.130667 41.130667 0 0 0 7.509333-20.650667 321.194667 321.194667 0 0 0 1.706667-38.058667q0-12.117333-0.341333-21.333333z" fill="#FFAE20" p-id="106739"></path><path d="M812.544 507.392l-74.922667 138.581333H887.466667l-74.922667-138.581333zM812.544 820.736L887.466667 682.325333h-149.845334l74.922667 138.410667z" fill="#FF6C39" p-id="106740"></path></svg>