<svg t="1669622268503" class="icon" viewBox="0 0 1024 1024" version="1.1" xmlns="http://www.w3.org/2000/svg" p-id="111395" width="200" height="200"><path d="M512 192c126.208 0 230.08 106.048 235.52 240.512l0.256 10.88c117.184 0 212.224 101.376 212.224 226.304C960 794.688 864.96 896 747.776 896H276.224C159.04 896 64 794.688 64 669.696 64 544.768 159.04 443.52 276.224 443.52l0.192-10.88C281.92 297.984 385.792 192 512 192z m0 270.464c-12.992 0-23.552 11.264-23.552 25.152v196.864l-59.84-63.808a22.592 22.592 0 0 0-22.784-6.464 24.448 24.448 0 0 0-16.64 17.792 26.304 26.304 0 0 0 6.08 24.32L495.36 762.88c4.48 4.736 10.432 7.424 16.704 7.424a22.848 22.848 0 0 0 16.64-7.424v0.064l100.032-106.624a26.24 26.24 0 0 0 6.4-24.448 24.448 24.448 0 0 0-16.768-17.984 22.592 22.592 0 0 0-22.912 6.784l-59.84 63.872V487.68c0-13.888-10.56-25.152-23.552-25.152z" fill="#FF8F49" p-id="111396"></path></svg>